<svg xmlns="http://www.w3.org/2000/svg" viewBox="0 0 1218.03 1152.89"><defs><style>.cls-1{fill:#9b9f9e;}.cls-2{fill:#c6c7c6;}.cls-3{fill:#e41717;}.cls-4{fill:#cd1417;}.cls-5{fill:#e21113;}.cls-6{fill:#e41b1a;}.cls-7{fill:#d51116;}.cls-8{fill:#aa1917;}.cls-9{fill:#c71617;}.cls-10{fill:#af1917;}.cls-11{fill:#d11317;}.cls-12{fill:#d91215;}.cls-13{fill:#b31917;}.cls-14{fill:#e5201d;}.cls-15{fill:#c01818;}.cls-16{fill:#c41718;}.cls-17{fill:#a01916;}.cls-18{fill:#ba1818;}.cls-19{fill:#de0e15;}.cls-20{fill:#991915;}.cls-21{fill:#a61916;}.cls-22{fill:#a31916;}.cls-23{fill:#b81918;}.cls-24{fill:#bb1818;}.cls-25{fill:#da1215;}.cls-26{fill:#de0f15;}.cls-27{fill:#941914;}.cls-28{fill:#e5231f;}.cls-29{fill:#d61016;}.cls-30{fill:#e10f14;}.cls-31{fill:#8e1912;}.cls-32{fill:#891812;}.cls-33{fill:#931914;}.cls-34{fill:#a91916;}.cls-35{fill:#ad1917;}.cls-36{fill:#9f1a16;}.cls-37{fill:#bc1818;}.cls-38{fill:#d91115;}.cls-39{fill:#e31415;}.cls-40{fill:#c81618;}.cls-41{fill:#a61a17;}.cls-42{fill:#c71718;}.cls-43{font-size:180.08px;font-family:Montserrat-Bold, Montserrat;font-weight:700;}.cls-43,.cls-49{fill:#b41917;}.cls-44{letter-spacing:-0.03em;}.cls-45{letter-spacing:-0.02em;}.cls-46{letter-spacing:-0.04em;}.cls-47{letter-spacing:-0.03em;}.cls-48{letter-spacing:-0.04em;}.cls-49{font-size:142.32px;font-family:Montserrat-Regular, Montserrat;}.cls-50{letter-spacing:0em;}.cls-51{letter-spacing:-0.03em;}.cls-52{letter-spacing:-0.01em;}.cls-53{letter-spacing:-0.01em;}.cls-54{letter-spacing:0em;}</style></defs><g id="Layer_2" data-name="Layer 2"><g id="Layer_1-2" data-name="Layer 1"><path class="cls-1" d="M733.29,112.64c-3.75,1.67-6.39,2.87-9.06,4Q672,139.48,622,167q-44.37,24.36-86.55,52.3a6.17,6.17,0,0,1-6.79.48q-30-13.86-60.11-27.54c-18.27-8.27-36.61-16.4-54.92-24.61-1.48-.66-2.93-1.42-4.74-2.3.82-1.7,2.31-2.45,3.51-3.37A1289.11,1289.11,0,0,1,543.25,73.73c9.93-5.81,20.12-11.18,30.14-16.85a8.34,8.34,0,0,1,7.47-.64c39.77,13.78,79.44,27.84,118.7,43q13.8,5.32,27.58,10.73C728.81,110.64,730.44,111.4,733.29,112.64Z"/><path class="cls-1" d="M499.19,242.94c-6.29,4.38-12.62,8.77-18.92,13.19q-43.45,30.51-84,64.71C376,337.93,356.14,355.47,337.15,374c-4.24,4.14-8.57,8.19-12.85,12.28-2.91,2.78-2.94,2.81-6,.4-11.94-9.3-23.81-18.69-35.78-27.93C266,346,249.34,333.29,232.77,320.57c-.91-.69-1.72-1.49-2.5-2.18-.14-1.57,1-2.13,1.8-2.89q37.64-38.13,78-73.43,33.44-29.28,68.51-56.53c2.66-2.08,4.65-2.42,7.85-.88,29.5,14.21,58.62,29.18,87.76,44.11,7,3.6,14,7.3,21,11C496.55,240.52,498.23,241,499.19,242.94Z"/><path class="cls-2" d="M277,101.24c7.33-5.31,13.91-10.18,20.59-14.91Q329.9,63.4,362.29,40.55c18.39-13,36.84-25.84,55.19-38.85A7.32,7.32,0,0,1,425.11.61c19.25,7.12,38.58,14,57.9,21,15.14,5.44,30.33,10.79,45.48,16.2,4.28,1.53,8.52,3.15,13.23,4.9-4.32,3.5-8.8,5.54-13,7.91-25.55,14.3-50.05,30.25-74.2,46.74-17.62,12-34.7,24.85-51.71,37.74-5.49,4.16-10.86,8.49-16.15,12.91-2.29,1.91-4.18,2.24-7,.88q-30.06-14.28-60.3-28.18c-12.82-5.92-25.73-11.66-38.6-17.5C279.66,102.71,278.67,102.13,277,101.24Z"/><path class="cls-3" d="M291.92,714.27c-8.51-9-16.2-18.81-24.34-28.2-2.23-2.57-4.76-4.93-6.45-8-.71-2.21.35-4.21.78-6.27,12.71-60.53,25.72-121,38.51-181.5,3.81-18,7.46-36.09,11.61-54,.51-2.21.23-5.19,3.69-5.55l-.05,0a1.45,1.45,0,0,0,1.16,1l-.11-.1a1.16,1.16,0,0,0,1.16,1l-.11-.11c.48,1.26,1.9,1.44,2.72,2.31l0,0c.37.29.67.64,1,.92h0a3.68,3.68,0,0,0,1.07,1l-.05-.06a2.36,2.36,0,0,0,1.14,1c8.2,6.53,16.09,13.4,23.6,20.71-10.89,50.3-21.44,100.68-32.15,151-6.65,31.2-13.4,62.38-19.9,93.61C294.46,706.86,294.25,710.9,291.92,714.27Z"/><path class="cls-4" d="M536.8,262c10.46,5.19,20.75,10.68,30.72,16.76-5.34,20.54-9.19,41.41-13.63,62.14-10.88,50.82-21.6,101.67-32.5,152.48a69,69,0,0,0-1,7.82c-9.8,8.18-19.62,16.34-29.38,24.57-1.43,1.21-2.47,1.22-3.78,0-2.8-2.74-6.11-4.92-8.68-7.91-1.29-2.06-.51-4.18-.08-6.23Q493,442.49,507.77,373.45q10.77-50.7,21.57-101.4c.56-2.57.89-5.21,2-7.6S534,260.51,536.8,262Z"/><path class="cls-5" d="M291.92,714.27c-.32-4.69,1.51-9,2.42-13.48,4.68-23,9.56-46.07,14.47-69.09,4.05-19,8.3-38,12.35-57,3.84-18.06,7.49-36.16,11.29-54.22,2.62-12.48,5.34-24.94,8-37.4,1.53-7,3.17-14,4.63-21.06.32-1.54.65-2.87,2.18-3.58l0,0a1.67,1.67,0,0,0,1.15,1l-.12-.1a1.46,1.46,0,0,0,1.28,1.07q15.57,12.88,30.2,26.82a8.78,8.78,0,0,0-3.84,6C365.55,542.45,355,591.7,344.64,641c-1.83,8.69-4.16,17.28-5.22,26.11-1.75,2.81-4.34,4.86-6.55,7.25Q317.56,691,302.14,707.51c-.65.71-1.43,1.31-2.15,2a1.62,1.62,0,0,0-1.05,1.15l.1-.11a1.22,1.22,0,0,0-1,1.15l.1-.11a1,1,0,0,0-1.05,1.13l.11-.1c-1.3.44-1.45,1.89-2.34,2.68l0,0a1.34,1.34,0,0,1-1.95.05l0,0c-.29-.37-.61-.7-.91-1Z"/><path class="cls-6" d="M315.72,430.75a5.08,5.08,0,0,0-2,3.3c-3.36,16.14-6.65,32.3-10.05,48.43-2.66,12.62-5.47,25.21-8.16,37.83-2.89,13.56-5.71,27.15-8.59,40.72-2.72,12.77-5.5,25.54-8.21,38.31-2.88,13.57-5.69,27.16-8.59,40.73-2.4,11.17-5.06,22.29-7.05,33.55-.28,1.56-1.29,3-2,4.49q-13.29-14.48-25.58-29.83c-1.23-2.09-.34-4.16.09-6.21q16.91-79.26,33.72-158.53c.82-3.85,1-7.84,2.67-11.49,7.61-9.29,16.26-17.61,24.58-26.25,5-5.21,10.27-10.19,15.35-15.34C313.46,428.94,314.62,428.63,315.72,430.75Z"/><path class="cls-7" d="M460.67,502.43Q447.49,492,435,480.69c-1.63-1.72-1.68-3.68-1.2-5.92q13.32-62.5,26.58-125c3-14.32,6.14-28.63,9.08-43,.81-4,2-7.62,5.11-10.42q15.79-12.08,32.64-22.6c2.53,2.15,1.54,4.88,1,7.36q-8.52,40-17,80.12-12.81,60.08-25.58,120.17C464.13,488.45,463.14,495.62,460.67,502.43Z"/><path class="cls-8" d="M770.06,330.24l-12.43,7.6a3.26,3.26,0,0,1-3.65-.14c-5.9-3.42-11.83-6.78-17.75-10.17-1.38-2.21-.57-4.5-.1-6.71,8.42-40.08,17-80.13,25.48-120.21q5.77-27.27,11.6-54.54a24.62,24.62,0,0,1,1.72-6.16c.8-1.54,1.47-3.55,4-2.44h0c.52.67,1.43.52,2,1l-.06,0c.52.73,1.42.61,2.11,1l-.1-.06c.51.91,1.53.71,2.3,1a195.82,195.82,0,0,1,23.41,10.9,27.51,27.51,0,0,0-4.05,10.46Q787.84,241.39,770.76,321C770.12,324,769.24,327.08,770.06,330.24Z"/><path class="cls-9" d="M520.41,501.18c-2.06-1.46-1.47-3.56-1.07-5.4,4.73-21.89,9.63-43.75,14.3-65.65,4.18-19.66,8.05-39.4,12.21-59.06,3.69-17.44,7.65-34.81,11.38-52.24,2.54-11.82,4.84-23.7,7.4-35.52.37-1.71.15-4.18,2.89-4.57a250.57,250.57,0,0,1,24.74,13.72c-4.78,12.85-6.53,26.45-9.39,39.75-9.78,45.5-19.33,91.05-29.11,136.54-.49,2.26-.67,4.56-.94,6.84-6.46,5.84-13.62,10.79-20.38,16.25C528.49,495,524.74,498.48,520.41,501.18Z"/><path class="cls-10" d="M778.9,137.47c-3.24.62-3.28,3.64-3.68,5.78-1.24,6.58-2.86,13.07-4.23,19.61q-4.05,19.41-8.11,38.8c-3.2,15.15-6.46,30.3-9.68,45.45-2.41,11.32-4.79,22.66-7.21,34q-4.29,20.1-8.6,40.18c-.44,2.08-.77,4.17-1.16,6.26-8.7-4.37-17.28-8.95-25.6-14-2.19-1.85-1.43-4.23-1-6.42C717.83,269,725.8,230.92,734,192.86c3.48-16.22,6.72-32.49,10.37-48.68.84-3.71,2.31-6.81,5.86-8.6a3.3,3.3,0,0,1,.73-.63c3.7-1.7,7.32-4.41,11.15-4.76,3.67-.35,7.19,2.65,10.74,4.26C774.88,135.39,777.16,135.9,778.9,137.47Z"/><path class="cls-11" d="M460.67,502.43c-1.42-4.23.82-8.05,1.6-11.95,3.93-19.7,8.21-39.33,12.42-59,3.07-14.38,6.26-28.73,9.31-43.12,3.86-18.22,7.58-36.46,11.44-54.68,3-14.39,6.22-28.74,9.31-43.12.89-4.15,1.56-8.35,2.6-12.46.4-1.57-.07-2.91-.15-4.36,6.82-5.34,14.32-9.71,21.44-14.61a2.88,2.88,0,0,1,3.59.06c1.49,1,3.32,1.4,4.57,2.77-3.3-.33-4.24,2-4.82,4.48q-2.07,9.09-4,18.21c-3.06,14.56-6.06,29.13-9.14,43.68-2.84,13.43-5.78,26.84-8.64,40.27-2.75,12.95-5.43,25.92-8.19,38.87-2.83,13.26-5.75,26.51-8.57,39.78-2.72,12.79-5.36,25.6-8,38.4q-3,14.15-5.9,28.31c-.27,1.28-.64,2.54-1,3.81C472.32,513,466.41,507.81,460.67,502.43Z"/><path class="cls-12" d="M474.56,296.36c-5.07,10.93-6,22.93-8.7,34.46-3.12,13.18-5.71,26.48-8.5,39.74-3.82,18.21-7.58,36.43-11.44,54.63-2.66,12.62-5.43,25.21-8.16,37.82-1,4.78-2,9.58-3.19,14.33-.3,1.26.35,2.23.42,3.35q-12.66-9.84-24.62-20.53a1.28,1.28,0,0,1-.79-.7l-.1-.07c-1.44-1.81-.71-3.74-.3-5.65,8.55-40.63,17.28-81.22,25.83-121.84.64-3.06,1.29-6.11,3-8.79,6.55-5.74,13.78-10.6,20.79-15.73C464,303.6,469,299.54,474.56,296.36Z"/><path class="cls-13" d="M750.21,135.58c-4.16,3.85-4.69,9.25-5.8,14.28-3.68,16.71-7.13,33.48-10.63,50.23-3.8,18.19-7.49,36.41-11.36,54.59-3.7,17.38-7.6,34.72-11.35,52.09-.48,2.19-1.19,4.43-.44,6.73a266.3,266.3,0,0,1-23.74-12.71c-2.07-1.76-1.85-4-1.34-6.32q11.28-52.62,22.39-105.27,3.39-15.93,6.74-31.87c.47-2.22.57-4.66,2.93-6A357,357,0,0,1,750.21,135.58Z"/><path class="cls-14" d="M272,472.05c.65,6-1.33,11.64-2.5,17.38-3,14.7-6.15,29.37-9.27,44.05-2.72,12.76-5.51,25.51-8.22,38.28-2.88,13.55-5.66,27.13-8.58,40.68-2.57,12-5.27,23.9-7.91,35.84q-11.94-12.75-22.8-26.43c-1.1-2.2-.83-4.45-.33-6.74,6.73-30.84,13.07-61.76,19.79-92.61a47.5,47.5,0,0,1,2.27-7c4.62-6.79,10.19-12.8,15.52-19C257.14,488.17,264.1,479.67,272,472.05Z"/><path class="cls-15" d="M615.87,428.89c-8.85,6.52-17.66,13.08-26.56,19.53-2.91,2.11-5.58,4.57-8.83,6.21a4.42,4.42,0,0,0-1.17.89h0c-3.34-1.23-1.61-3.85-1.26-5.71,2.46-12.9,5.3-25.73,8.08-38.56,7.3-33.7,14.17-67.48,21.62-101.14.57-2.6.09-6.22,4.25-6.69q14.29,7.21,27.88,15.71c-3.32,5.7-3.72,12.24-5.06,18.46q-8.88,41.25-17.62,82.52C616.56,423,616.23,426,615.87,428.89Z"/><path class="cls-16" d="M612,303.43c-2.84,1.28-2.35,4.23-2.84,6.42-4.06,18.14-7.94,36.32-11.76,54.51-4.15,19.79-8.14,39.62-12.27,59.41-2,9.58-4.12,19.13-6.26,28.67-.26,1.17-.74,2.2.44,3.09a132.81,132.81,0,0,1-14.58,11,4.16,4.16,0,0,0-1.19.9h0a3.47,3.47,0,0,1-1,.82l-.17.13a.78.78,0,0,1-.7.6l-.83.51a3,3,0,0,0-1.2.93h0a5.92,5.92,0,0,1-1,.83l-.16.1a.88.88,0,0,1-.73.63l-.78.5a2.29,2.29,0,0,0-1.22,1l0,0c-.95.74-2.28,1-2.86,2.21h0c-1.73-1.61-1.29-3.64-.88-5.54,4.74-21.87,9.63-43.71,14.29-65.6,4.18-19.65,7.95-39.39,12.24-59,3.42-15.64,6.8-31.29,10-47,.48-2.37,1.25-4.83,3.83-6l0,0c.42.84,1.45.57,2,1.1A140.18,140.18,0,0,1,612,303.43Z"/><path class="cls-17" d="M852.9,285.67c-8.84,4.66-17.66,9.35-26.53,13.95-2.6,1.34-5,3.13-7.9,3.88-.6.52-1.6.26-2,1.06l0,0c-3.72-1.21-2.35-4.21-2-6.52.86-6.19,2.45-12.25,3.76-18.36,7.42-34.56,14.52-69.19,22.16-103.7.64-2.87.69-6.39,4.84-6.92A311.08,311.08,0,0,1,874.55,184c-4.65,7.85-5.09,16.91-6.95,25.49-4.79,22.14-9.48,44.3-14.21,66.46A24.66,24.66,0,0,0,852.9,285.67Z"/><path class="cls-18" d="M615.87,428.89c-1.74-1.83-1.17-4.08-.74-6.07,4-18.85,8.19-37.67,12.21-56.52,2.86-13.42,5.44-26.89,8.42-40.28.56-2.53-.28-6.41,4.09-6.88,11.08,5.6,21.63,12.16,32.44,18.23,2,1.11,4.14,1.95,5.76,3.64-4,7.16-4.31,15.35-6.21,23.09-2.1,8.55-3.73,17.23-5.36,25.9-.27,1.42-.79,2.86-.22,4.34-11.09,7.63-22.15,15.3-33.28,22.88-5.29,3.59-10.25,7.67-15.87,10.77a2.6,2.6,0,0,0-1.24.9Z"/><path class="cls-19" d="M339.42,667.09c-1.73-1.63-1.21-3.64-.79-5.53q8.64-39.27,16.71-78.67c4.89-23.69,10.28-47.28,15.37-70.93,1.55-7.19,2.82-14.43,4.28-21.64.76-3.73,1-3.85,4.78-3.14l0,0a11.61,11.61,0,0,0,1,.94l0,0a4,4,0,0,0,1.09,1A165.71,165.71,0,0,1,397.48,503c-2.64,4.31-3.33,9.24-4.34,14q-11.53,55.25-23.51,110.4c-1,4.69-.4,10-4.69,13.63-5.62,6.26-11.5,12.27-17.7,18a6.89,6.89,0,0,0-1,1l0,0a3.45,3.45,0,0,0-1,1.05l0-.05a3.07,3.07,0,0,0-1,1l0-.05a3,3,0,0,0-1,1l.05-.05a2.48,2.48,0,0,0-1,1.08l.07-.08a2.05,2.05,0,0,0-1,1.09l.08-.08a1.88,1.88,0,0,0-1.07,1.07l.08-.08a1.63,1.63,0,0,0-1.05,1.09Z"/><path class="cls-20" d="M852.9,285.67c-1.76-.18-1.94-1.42-2-2.84,0-3.16.94-6.14,1.57-9.17,3.07-14.72,6.21-29.43,9.32-44.14q4.47-21.11,9-42.21a4,4,0,0,1,3.75-3.34q20.76,10,40.59,21.7c-4.25,2-5.88,5.45-6.69,10-2.46,13.66-5.7,27.17-8.58,40.74-.48,2.27-.91,4.49-.16,6.76-10.73,5.21-21.45,10.46-32.21,15.61C862.64,281.06,858,283.85,852.9,285.67Z"/><path class="cls-21" d="M770.06,330.24c-2.65-.52-2.22-2.5-1.86-4.25,1.94-9.27,3.95-18.53,5.94-27.78q4.3-20.11,8.62-40.22,4.2-19.63,8.35-39.28,4.25-20.13,8.48-40.25c1.62-7.66,3.33-15.31,4.87-23,.49-2.42,1.69-3.83,4.11-4.22l-.06,0c.49.77,1.42.59,2.09,1l-.09-.05c.46.83,1.4.67,2.1,1l-.11-.06c.48.93,1.51.72,2.27,1.07a45.43,45.43,0,0,1,10.51,5C814,209.24,803.93,259.5,793,309.59a17.67,17.67,0,0,0-.12,7.79,35.35,35.35,0,0,1-8.87,4.93,3.56,3.56,0,0,0-1.22.77l-.19.29-.34,0a2.22,2.22,0,0,0-1.47.81l0,0c-.49.61-1.44.4-1.9,1.06h0c-.57.51-1.54.31-2,1.09l.08-.06a10.2,10.2,0,0,0-1.11.74l-.23.3h-.38a2.6,2.6,0,0,0-1.4.8l-.07,0c-.46.63-1.41.42-1.87,1.06h0c-.55.54-1.55.29-1.94,1.11Z"/><path class="cls-22" d="M792.9,317.38c-3-.51-2.38-2.87-2-4.64,1-5.14,2.26-10.21,3.34-15.33,3.47-16.45,6.88-32.93,10.38-49.38,2.34-11,4.84-22,7.19-33.05,3.23-15.17,6.36-30.37,9.58-45.54.54-2.56,1.3-5.07,1.9-7.61a3.54,3.54,0,0,1,2-2.6h0c.51.65,1.44.44,2,1h0c.53.63,1.43.47,2,1l0,0c.5.68,1.42.52,2,1l0,0c.49.7,1.42.54,2,1l0,0c.49.71,1.42.55,2,1l-.06,0c.49.73,1.42.57,2.05,1l-.07,0c.48.76,1.41.6,2.06,1l-.08,0c.46.78,1.41.61,2.05,1l-.08,0c.5.79,1.48.58,2.14,1a2,2,0,0,1,2,1,11,11,0,0,0-3.29,6.31c-2.91,14.41-6.16,28.75-9.21,43.12-4.52,21.25-9,42.52-13.45,63.77-1.12,5.27-2.44,10.5-3.51,15.78-.45,2.19-1.11,4.53.73,6.52Q805,311.56,792.9,317.38Z"/><path class="cls-23" d="M717.61,151.35c-2,5.4-2.48,11.14-3.7,16.71-4.55,20.75-8.76,41.57-13.14,62.35q-4,18.94-8.13,37.87-3.12,14.37-6.37,28.7c-.33,1.44.38,2.55.62,3.81a172.09,172.09,0,0,1-18.76-9.9c-.38-.92-1.36-.77-2-1.14l.08.06c-2-1.55-1.9-3.59-1.43-5.8q11.73-55.24,23.44-110.49c.75-3.56,1.84-7,4.66-9.59A244.11,244.11,0,0,1,717.61,151.35Z"/><path class="cls-24" d="M692.83,163.93c-4.69,11.59-6,24-8.74,36.06-3,12.87-5.52,25.83-8.27,38.74q-4.27,20.09-8.57,40.16a42.5,42.5,0,0,1-1.37,6.2,6,6,0,0,0,.28,4.72,271,271,0,0,1-24.67-12.87c-1.52-1.92-1.06-4-.62-6.14,6-28.65,12.37-57.22,18.08-85.93a11.21,11.21,0,0,1,2.24-4.27C671.51,174.62,682,168.94,692.83,163.93Z"/><path class="cls-25" d="M364.94,641.08c1.65-2.73,1.7-5.83,2.32-8.84,3.89-18.9,8.17-37.71,12.17-56.57,4.18-19.67,8.19-39.37,12.26-59.06.66-3.2,1.71-6.3,2.15-9.58.25-1.85,1.07-3.92,3.64-4l.07.06a6.56,6.56,0,0,1,1,.91h0c.35.32.66.66,1,.95h0a4.24,4.24,0,0,0,1.1,1,199.1,199.1,0,0,1,17.62,15.86c-6.49,26-11.43,52.23-17.05,78.37-.48,2.22-1.34,4.39-1.35,6.71q-11.83,11.7-23.68,23.4C372.49,633.89,368.7,637.46,364.94,641.08Z"/><path class="cls-26" d="M438.05,323.11c-.75,7.15-2.75,14.06-4.17,21.08-2.77,13.73-5.75,27.42-8.67,41.12-2.72,12.75-5.49,25.48-8.2,38.23-2.54,11.95-5,23.9-7.53,35.85a231.5,231.5,0,0,1-18.86-15.54,1.75,1.75,0,0,0-1.17-1l.08.08c-1.14-1.64-.9-3.4-.51-5.2,6.14-28.85,12.2-57.72,18.37-86.56.51-2.42,1.09-4.78,2.92-6.61A332.85,332.85,0,0,1,438.05,323.11Z"/><path class="cls-27" d="M927.08,329.2c-2.26,1.92-5.09,2.81-7.67,4.15q-18.45,9.57-36.95,19.07c-1.14.58-2.19,1.44-3.55,1.52-4.67.68-4.2-2.48-3.72-5.26,1.72-9.85,3.92-19.62,6.18-29.36,1.55-6.67,2-13.64,5.1-19.92,8.93-5.16,18.44-9.13,27.76-13.48,7.11-3.32,14.14-6.85,21.56-9.46,1.92,2.08.75,4.39.32,6.53-2.48,12.37-5.22,24.68-7.85,37C927.62,323,926.62,326,927.08,329.2Z"/><path class="cls-20" d="M886.47,299.4c.34,4.83-1.6,9.26-2.48,13.87-2.33,12.27-5.34,24.41-7.64,36.7-.5,2.67.1,3.67,2.56,4-7.6,4.76-15.7,8.6-23.55,12.9-5.42,3-10.68,6.25-16.39,8.68-.43.67-1.38.42-1.85,1h0c-.53.56-1.48.36-1.93,1.06l0,0c-.59.5-1.58.27-2,1.1l0,0c-3.17-.63-2.48-3.18-2.12-5,3.13-16.25,6.49-32.45,10.23-48.57a10.26,10.26,0,0,1,2.55-4.12C857.8,313.14,871.94,305.88,886.47,299.4Z"/><path class="cls-13" d="M658.3,434.68c7.79-6.25,16.27-11.53,24.5-17.15,5.26-3.59,10.36-7.44,16-10.41,1.86,2.1.76,4.36.31,6.54-3.67,18-8.34,35.75-11,53.93-9.65,6.78-19.27,13.6-29,20.33-2.13,1.48-4.07,3.31-6.58,4.23-.41.24-.75.58-1.14.85l-.08.05c-.43.64-1.47.4-1.78,1.22l.1-.08a2.72,2.72,0,0,0-1.18.86h0c-.48.6-1.57.31-1.81,1.26l0,0c-3.47-1-2.42-3.81-2.07-6,.92-5.65,2.45-11.18,3.51-16.81,2.11-11.24,5.4-22.24,6.86-33.61A7.64,7.64,0,0,1,658.3,434.68Z"/><path class="cls-28" d="M234.48,515.48c.28,6-2,11.55-3.09,17.29-2.72,13.76-5.74,27.46-8.66,41.18q-4.08,19.14-8.23,38.28a62.83,62.83,0,0,0-1.75,9.62c-8.83-9.26-16.84-19.24-25.3-28.82-1.72-1.95-4.5-3.62-4.71-6.09s2.35-4.51,3.77-6.68q21.12-32.09,45.3-62C232.63,517.3,233.27,516.11,234.48,515.48Z"/><path class="cls-15" d="M661.19,180.6c-1.6,8-3.16,16-4.82,24q-6.42,30.9-12.93,61.79c-.74,3.52-2.16,6.89-2,10.58a239.43,239.43,0,0,1-22.76-11.7c-1.48-1.47-1.32-3.18-.92-5,4.19-19.45,8.29-38.92,12.51-58.37.42-1.93.81-3.87,2.23-5.38C641.83,190.68,651.42,185.47,661.19,180.6Z"/><path class="cls-29" d="M399.89,606.83c-1.25-.68-1.21-1.66-.94-2.93Q404.05,580.47,409,557c2.17-10.21,4.18-20.46,6.43-30.65.38-1.7.12-4.18,2.83-4.61,6.75,5.25,12.77,11.33,19.16,17,6.16,5.44,12.15,11.06,18.1,16.5,0,1.39-1,1.85-1.67,2.45Q427.6,580.88,402.2,605A29.12,29.12,0,0,1,399.89,606.83Z"/><path class="cls-7" d="M386.67,659.9c9.61-10.26,20.09-19.62,30.3-29.26,5.58-5.27,11-10.77,17-15.48,1,3.2-1.63,5.43-2.24,8.23-3.67,17.11-7.8,34.12-10.54,51.42q-14.33,12.9-29.54,24.73c-.35.31-.69.62-1.05.91l0,0c-.83.87-2.17,1.11-2.76,2.26l.11-.11a1.5,1.5,0,0,0-1.16,1l.09-.08a2.45,2.45,0,0,0-1.13,1l0,0c-.39.26-.69.62-1.07.9l-.06,0a2.66,2.66,0,0,1-1,.83l-.13.11c-.35.68-1.47.43-1.64,1.34l.12-.12a1.43,1.43,0,0,0-1.19,1l.09-.08a2.55,2.55,0,0,0-1.12,1l0,0a10.28,10.28,0,0,0-1.06.92h0c-2.6-.18-1.93-2.21-1.91-3.66a26.13,26.13,0,0,1,.68-6.31C381,687,382.6,673.17,386.67,659.9Z"/><path class="cls-30" d="M410.31,344.56c-2.58,11.93-5.2,23.85-7.74,35.78q-4.17,19.57-8.25,39.17c-1.63,7.8-3.2,15.61-4.79,23.42-7.56-5.47-14.71-11.44-21.72-17.59a7.79,7.79,0,0,1-.82-6.16c3.23-15.07,6.64-30.11,9.54-45.25a12,12,0,0,1,1.16-2.7Q393.41,357.18,410.31,344.56Z"/><path class="cls-31" d="M927.08,329.2c-1.66-.23-2.1-1.08-1.72-2.74,1.73-7.6,3.49-15.19,5-22.83,1.79-9.06,4.31-18,5.44-27.17,14.57-6.84,29.37-13.15,44.51-18.61-5.87,13.49-6.83,28.21-10.46,42.26a18.06,18.06,0,0,0-.31,8.3c-7.62,4.45-15.76,7.84-23.63,11.77-4.22,2.11-8.28,4.59-12.81,6.05-.63.49-1.61.26-2.09,1l.07,0c-.64.43-1.57.26-2.05,1l.07,0c-.63.45-1.57.25-2.05,1Z"/><path class="cls-32" d="M969.53,308.41c-3-.61-2.07-3-1.84-4.72.39-3.05,1.17-6.06,1.81-9.08,2.11-9.87,4.39-19.7,6.28-29.61a12.12,12.12,0,0,1,4.52-7.15c4-2.26,8.47-3.42,12.63-5.29,1.8-.81,3.14-.16,4.57.74L1035.28,277c.19,1.43-.72,1.54-1.43,1.87L971,308.1A6.61,6.61,0,0,1,969.53,308.41Z"/><path class="cls-33" d="M899.71,263.12c-2.21-.3-2.49-1.65-2.08-3.56q4.61-21,9.13-42.05c.45-2.07.88-4.14,1.38-6.2,1.21-4.95,1.63-5.27,7-5.64h0a2,2,0,0,0,1.47.85c10.37,4.9,20.08,11,30.06,16.61,6.54,3.68,13,7.52,20.13,11.66-5,2-9.41,3.71-13.74,5.48q-22.29,9.07-44.22,19c-1.48.66-2.84,1.65-4.54,1.74-1.32.63-2.81.89-4,1.87l-.26.29Z"/><path class="cls-4" d="M463.61,588.43c3.78-4.13,8.31-7.43,12.39-11.24,1.07-1,2-1.47,3.33-.22q13.85,13,27.76,25.88c.1.09.1.29.21.69-8.53,7-17.13,14.17-25.76,21.26Q467.28,636.52,453,648.2c-2.26-.13-2.07-1.92-1.81-3.21,3.81-18.76,7-37.66,12.27-56.1C463.61,588.26,463.35,589,463.61,588.43Z"/><path class="cls-34" d="M728.33,388c3.94-3.23,8.52-5.49,12.7-8.35a2.88,2.88,0,0,1,3.58-.18c5.78,3.7,12,6.68,17.53,10.78-4,11.24-5.62,23-8,34.66Q737.9,435.84,721,445.82a1.79,1.79,0,0,0-1.43.92l0,0c-.34.26-.68.52-1,.77l-.89.57c-1.78-1.54-1.57-3.61-1.15-5.5C720.59,424.4,724,406.11,728.33,388Z"/><path class="cls-35" d="M728.33,388a5.79,5.79,0,0,1,.39,4.18c-3.69,16.64-7.2,33.32-10.81,50a23.41,23.41,0,0,0-.18,5.85c-7.74,5.37-15.49,10.71-23.61,15.49a3.86,3.86,0,0,0-1.22.86l0,0c-.46.62-1.5.38-1.82,1.21l.1-.08a2.79,2.79,0,0,0-1.19.84l0,0c-.46.62-1.53.32-1.84,1.2l0,0c-1.72-1.62-1.22-3.64-.81-5.52q5.65-26,11.39-52a19.11,19.11,0,0,0,.16-2.94Q713.11,396.85,728.33,388Z"/><path class="cls-36" d="M843.94,320.93c-3.15,11.52-5.23,23.28-7.77,34.94-1.23,5.58-2.34,11.19-3.53,16.79-.44,2.08-1.18,4.17.64,6-2.38,2.43-4.58,2.57-7.7.66-13.72-8.43-27.64-16.53-41.48-24.75,0-1.05.88-1.28,1.51-1.65q27.74-16.07,56-31.09A22.49,22.49,0,0,1,843.94,320.93Z"/><path class="cls-11" d="M463.61,588.43c.72,4.86-1.36,9.3-2.26,13.88-2.83,14.48-6.06,28.89-9.15,43.32-.23,1-.23,1.93.77,2.57-8.7,7.91-17.73,15.42-27,22.64a.75.75,0,0,1-.68.62.6.6,0,0,1-.69.53,1.66,1.66,0,0,0-1.28,1l.09-.08a2.7,2.7,0,0,0-1.13,1l0,0a10.07,10.07,0,0,0-1.05.91l0,0c-1.63-1.66-1.18-3.8-.76-5.58,3.75-16.14,6.55-32.49,10.56-48.58.56-2.25,2.7-3.29,3-5.49C443.49,605.82,453.39,596.94,463.61,588.43Z"/><path class="cls-23" d="M658.3,434.68c-2.79,3.44-1.94,7.8-2.83,11.7-.75,3.33-1.36,6.71-2.13,10.05-1.72,7.45-3.48,14.92-4.78,22.45-.66,3.89-2.31,7.49-2.68,11.43-.2,2.1-1.06,4.19.79,6q-14.61,11.18-29.83,21.48c-3.8-1.43-2.34-4.64-2-7,.93-5.63,2.24-11.21,3.4-16.81,2.3-11,4.89-22,6.94-33.1a10.48,10.48,0,0,1,1.39-3.63C636.86,449.26,647.39,441.71,658.3,434.68Z"/><path class="cls-37" d="M626.62,457.22c.43,6.8-1.9,13.17-3.23,19.68-2.36,11.46-5,22.86-7.33,34.33-.43,2.1-1,4.56.78,6.55q-14.28,11.37-29.2,21.87a1.57,1.57,0,0,0-1.34,1l.05,0c-3.87-1.4-1.93-4.38-1.47-6.55,3.21-15.07,6.31-30.17,9.55-45.23.79-3.66.94-7.54,3.68-10.52Q611.88,467.13,626.62,457.22Z"/><path class="cls-15" d="M598.11,478.33l-6.9,32.49c-1.83,8.6-3.64,17.21-5.53,25.79-.33,1.5-.78,2.88.67,4q-9.86,8.4-20.49,15.8a1.66,1.66,0,0,0-1.29,1l.08-.07a3.37,3.37,0,0,0-1.13.92h0a4.77,4.77,0,0,1-1,.82l-.14.09c-.37.68-1.43.45-1.69,1.27l.1-.1a2,2,0,0,0-1.16,1l0,0a13.08,13.08,0,0,0-1.08.89l0,0c-4.45,1.62-3.87-1.58-3.52-4,.85-5.7,2.32-11.28,3.51-16.91,2.26-10.63,4.53-21.25,6.68-31.9.77-3.84,2.19-7.17,5.14-9.79C579.27,492.13,588.5,485,598.11,478.33Z"/><path class="cls-16" d="M570.32,499.64c-2.54,3.93-3.34,8.39-4.26,12.88q-4.75,23.24-9.89,46.39c-.56,2.48-.19,3.43,2.34,3.29-4.66,3.81-9.36,7.57-14,11.43-1.46,1.21-2.51,1-3.74-.31-2.27-2.32-5-4.18-7-6.76-2.4-2-2.77-4.32-2.1-7.36,2.29-10.34,4.62-20.68,6.61-31.09.47-2.46,1.87-4.05,3.41-5.71Q555.46,510.36,570.32,499.64Z"/><path class="cls-16" d="M632.55,196.45c-1.65,8.28-3.22,16.58-5,24.83-2.5,11.8-5.3,23.54-7.58,35.38-.53,2.8-2.41,5.51-1.27,8.58A148.16,148.16,0,0,1,602,256.78c-.36-.22-.72-.44-1.07-.67l.08.05c-.47-.76-1.41-.59-2-1l.07,0c-.47-.75-1.42-.57-2-1l.05,0c-1.49-1-1.46-2.41-1.14-3.92,2.42-11.63,4.84-23.26,7.49-34.84a10.23,10.23,0,0,1,1.49-3.06A306.35,306.35,0,0,1,632.55,196.45Z"/><path class="cls-13" d="M666.26,394.34c-1.77-.21-2-1.17-1.63-2.79,1.29-5.73,2.42-11.49,3.64-17.24,2-9.26,3.84-18.54,6-27.76.51-2.14.26-5.27,3.79-5.54h0a2.39,2.39,0,0,0,1.41.83c10,5,19.36,11,29.06,16.52,2.26,1.28,4.48,2.65,6.76,4-.43,1.69-1.86,1.95-2.87,2.6q-21.13,13.6-42.3,27.14c-.81.52-1.71.9-2.58,1.35a2.13,2.13,0,0,0-1.3.89Z"/><path class="cls-26" d="M351.34,733.17c-7.54,7.09-15.91,13.2-23.75,19.93-1.25,1.07-2.2,1.07-3.29-.24-3.89-4.68-7.77-9.37-11.81-13.91-1.76-2-.21-2.91.85-4,8.07-8.66,16.1-17.35,24.27-25.91,6.35-6.64,12.49-13.49,19.39-19.59,2.12,2.17,1,4.63.55,7q-3,14.49-6.09,29A16.64,16.64,0,0,0,351.34,733.17Z"/><path class="cls-38" d="M351.34,733.17c-3.29-.69-2.15-3.23-1.91-5.11.42-3.21,1.17-6.38,1.86-9.55,1.78-8.09,3.57-16.17,5.45-24.24a19.36,19.36,0,0,0,.26-4.86c9.47-10.26,19.39-20.06,29.67-29.51.25.77.94,1.8.67,2.28-2.49,4.39-1.62,9.53-3.36,14.16-1.57,4.17-2.11,8.82-2.5,13.31-.23,2.7-1.68,4.87-2.13,7.46-.64,3.69-.84,7.42-1.49,11.1a2.14,2.14,0,0,0,.92,2.15Q365.54,722.36,351.34,733.17Z"/><path class="cls-39" d="M377.69,371.23c.65,5.49-1.24,10.64-2.29,15.87-2.22,11-4.87,21.9-7.24,32.86a34.25,34.25,0,0,0-.35,5.38l-27-21.23a3.46,3.46,0,0,1,1.46-2.21l33.74-29.62A13.86,13.86,0,0,1,377.69,371.23Z"/><path class="cls-40" d="M604.91,212.33c.52,2.84-.61,5.5-1.15,8.15-2.09,10.32-4.5,20.58-6.87,30.83a5,5,0,0,0,.18,2.84c-9.37-4-18.23-9-27.37-13.45-2-1-4-2-5.84-3,.08-1.44,1-1.6,1.69-2q18.75-11.37,37.56-22.65A12.41,12.41,0,0,1,604.91,212.33Z"/><path class="cls-41" d="M754.16,425c-1.28-.95-1.15-2.34-.88-3.59q2.88-13.83,5.9-27.64c.35-1.63.93-3.19,3-3.43l0,0c.41.75,1.41.5,1.89,1.12h0c.38.32.67.78,1.25.78l-.13-.1c.31,1,1.41.7,2,1.2,6.88,3.3,13.11,7.67,20.55,11.88L764,419a1.3,1.3,0,0,1-.85.61A10.15,10.15,0,0,1,759,422a1.78,1.78,0,0,1-.89.66l-.85.4a12.6,12.6,0,0,0-1.15.75A2.67,2.67,0,0,1,754.16,425Z"/><path class="cls-42" d="M541.69,522.4c-2.6,4.12-2.48,9-3.64,13.52-2,7.84-3.35,15.87-5.12,23.79-.56,2.47-.73,4.72.84,6.85-7.6-6-14.48-12.85-21.78-19.16.23-1.69,1.54-2.23,2.49-3C523.53,537,532.18,529.2,541.69,522.4Z"/><path class="cls-20" d="M900.35,262.86c.79-1.73,2.29-2,4-1.87A7,7,0,0,1,900.35,262.86Z"/><path class="cls-3" d="M294.83,715.26c.12-1.46.68-2.55,2.34-2.68A4.75,4.75,0,0,1,294.83,715.26Z"/><path class="cls-38" d="M387.84,702.74a2.62,2.62,0,0,1,2.76-2.26A5,5,0,0,1,387.84,702.74Z"/><path class="cls-9" d="M552.81,475.59c.27-1.63,1.34-2.21,2.86-2.21A5.13,5.13,0,0,1,552.81,475.59Z"/><path class="cls-6" d="M320.49,434.84c-1.48-.1-2.55-.68-2.72-2.31A5.14,5.14,0,0,1,320.49,434.84Z"/><path class="cls-10" d="M780.91,138.44a1.91,1.91,0,0,1-2-1A2.1,2.1,0,0,1,780.91,138.44Z"/><path class="cls-10" d="M783,139.36a1.77,1.77,0,0,1-2.11-1A2.21,2.21,0,0,1,783,139.36Z"/><path class="cls-10" d="M785.16,140.35c-1,.08-1.86,0-2.3-1A2.74,2.74,0,0,1,785.16,140.35Z"/><path class="cls-8" d="M810.6,152.21c-.89.09-1.69,0-2.09-1A2.17,2.17,0,0,1,810.6,152.21Z"/><path class="cls-8" d="M812.61,153.17c-.92.11-1.73,0-2.1-1A2.31,2.31,0,0,1,812.61,153.17Z"/><path class="cls-8" d="M814.77,154.18c-1,.08-1.86,0-2.27-1.07A2.72,2.72,0,0,1,814.77,154.18Z"/><path class="cls-21" d="M827.26,160.22a2,2,0,0,1-2-1A2.11,2.11,0,0,1,827.26,160.22Z"/><path class="cls-21" d="M829.28,161.18a2,2,0,0,1-2-1A2.1,2.1,0,0,1,829.28,161.18Z"/><path class="cls-21" d="M831.27,162.15a1.91,1.91,0,0,1-2-1A2.12,2.12,0,0,1,831.27,162.15Z"/><path class="cls-21" d="M833.25,163.14a1.89,1.89,0,0,1-2-1A2.1,2.1,0,0,1,833.25,163.14Z"/><path class="cls-21" d="M835.24,164.12a1.87,1.87,0,0,1-2-1A2.2,2.2,0,0,1,835.24,164.12Z"/><path class="cls-21" d="M837.23,165.09c-.87,0-1.66-.08-2.05-1A2.15,2.15,0,0,1,837.23,165.09Z"/><path class="cls-21" d="M839.22,166.06c-.88.07-1.67-.06-2.06-1A2.2,2.2,0,0,1,839.22,166.06Z"/><path class="cls-21" d="M841.19,167.06c-.89.05-1.68-.08-2.05-1A2.17,2.17,0,0,1,841.19,167.06Z"/><path class="cls-21" d="M843.25,168.06c-.9,0-1.73-.07-2.14-1A2.32,2.32,0,0,1,843.25,168.06Z"/><path class="cls-27" d="M929,328.26c.38-.95,1.17-1.08,2.05-1A2.18,2.18,0,0,1,929,328.26Z"/><path class="cls-40" d="M597,254.12a1.85,1.85,0,0,1,2,1A2.22,2.22,0,0,1,597,254.12Z"/><path class="cls-40" d="M599,255.13c.88,0,1.66.08,2,1A2.15,2.15,0,0,1,599,255.13Z"/><path class="cls-8" d="M776.93,326.31a1.79,1.79,0,0,1,2-1.09A2.16,2.16,0,0,1,776.93,326.31Z"/><path class="cls-24" d="M666.08,289.75c.94-.08,1.75.07,2,1.14A2.43,2.43,0,0,1,666.08,289.75Z"/><path class="cls-9" d="M594.25,293.53c-.88,0-1.68-.13-2-1.1A2.3,2.3,0,0,1,594.25,293.53Z"/><path class="cls-16" d="M560.66,560.47c.2-.9.89-1.16,1.69-1.27A2.16,2.16,0,0,1,560.66,560.47Z"/><path class="cls-8" d="M778.87,325.23a1.93,1.93,0,0,1,1.9-1.06A2.12,2.12,0,0,1,778.87,325.23Z"/><path class="cls-22" d="M816.43,304.56c.36-.95,1.16-1.08,2-1.06A2.24,2.24,0,0,1,816.43,304.56Z"/><path class="cls-27" d="M931,327.28c.39-1,1.2-1.08,2.09-1A2.19,2.19,0,0,1,931,327.28Z"/><path class="cls-38" d="M381.93,707.71c.14-1,.83-1.22,1.64-1.34A2.15,2.15,0,0,1,381.93,707.71Z"/><path class="cls-3" d="M292.85,715.35l1.95-.05C294.18,716.5,293.54,716.72,292.85,715.35Z"/><path class="cls-23" d="M649.54,494.27c.25-.91,1-1.14,1.78-1.22A2.08,2.08,0,0,1,649.54,494.27Z"/><path class="cls-23" d="M646.63,496.32c.21-1,1-1.21,1.81-1.26A2.23,2.23,0,0,1,646.63,496.32Z"/><path class="cls-13" d="M688.06,467.61c.27-.93,1-1.15,1.84-1.2A2.21,2.21,0,0,1,688.06,467.61Z"/><path class="cls-34" d="M767.16,393.27c-.92,0-1.76-.12-2-1.2A2.44,2.44,0,0,1,767.16,393.27Z"/><path class="cls-34" d="M764,391.38a1.87,1.87,0,0,1-1.89-1.12A2.18,2.18,0,0,1,764,391.38Z"/><path class="cls-36" d="M833.24,378.68c.32-1,1.1-1.12,2-1.1A2.18,2.18,0,0,1,833.24,378.68Z"/><path class="cls-36" d="M835.18,377.61a1.85,1.85,0,0,1,1.93-1.06A2.07,2.07,0,0,1,835.18,377.61Z"/><path class="cls-36" d="M837.12,376.54a2,2,0,0,1,1.85-1A2,2,0,0,1,837.12,376.54Z"/><path class="cls-13" d="M691,465.63c.26-.92,1-1.15,1.82-1.21A2.17,2.17,0,0,1,691,465.63Z"/><path class="cls-8" d="M770,330.27a1.77,1.77,0,0,1,1.94-1.11A2.15,2.15,0,0,1,770,330.27Z"/><path class="cls-27" d="M927,329.23c.39-.93,1.17-1.06,2.05-1A2.17,2.17,0,0,1,927,329.23Z"/><path class="cls-8" d="M772,329.17a1.94,1.94,0,0,1,1.87-1.06A2.12,2.12,0,0,1,772,329.17Z"/><path class="cls-20" d="M916.62,206.52a1.7,1.7,0,0,1-1.47-.85A1.51,1.51,0,0,1,916.62,206.52Z"/><path class="cls-40" d="M600.93,256.11l1.07.67A.88.88,0,0,1,600.93,256.11Z"/><path class="cls-9" d="M557.65,471.94a1.54,1.54,0,0,1,.73-.63C558.32,471.73,558.1,472,557.65,471.94Z"/><path class="cls-9" d="M559.58,470.39l1.2-.93A1.27,1.27,0,0,1,559.58,470.39Z"/><path class="cls-9" d="M555.65,473.4a1.55,1.55,0,0,1,1.22-1A1.35,1.35,0,0,1,555.65,473.4Z"/><path class="cls-9" d="M561.61,469a1.46,1.46,0,0,1,.7-.6A.59.59,0,0,1,561.61,469Z"/><path class="cls-9" d="M562.48,468.22l1-.82A.94.94,0,0,1,562.48,468.22Z"/><path class="cls-5" d="M380.83,488.14l-1-.94A1.08,1.08,0,0,1,380.83,488.14Z"/><path class="cls-5" d="M381.9,489.1l-1.09-1A1.24,1.24,0,0,1,381.9,489.1Z"/><path class="cls-23" d="M651.4,493l1.14-.85A1.12,1.12,0,0,1,651.4,493Z"/><path class="cls-23" d="M648.46,495.05l1.18-.86A1.14,1.14,0,0,1,648.46,495.05Z"/><path class="cls-9" d="M563.51,467.39l1.19-.9A1.23,1.23,0,0,1,563.51,467.39Z"/><path class="cls-19" d="M398.54,504l-1-.91A1,1,0,0,1,398.54,504Z"/><path class="cls-19" d="M399.59,504.93c-.35-.31-.69-.63-1-.95A1.13,1.13,0,0,1,399.59,504.93Z"/><path class="cls-19" d="M400.67,505.89l-1.1-1A1.2,1.2,0,0,1,400.67,505.89Z"/><path class="cls-13" d="M689.94,466.39l1.19-.84A1.14,1.14,0,0,1,689.94,466.39Z"/><path class="cls-13" d="M692.9,464.4l1.22-.86A1.2,1.2,0,0,1,692.9,464.4Z"/><path class="cls-15" d="M586.3,540.66a1.52,1.52,0,0,1,1.34-1A1.55,1.55,0,0,1,586.3,540.66Z"/><path class="cls-16" d="M564.57,557.43a1.49,1.49,0,0,1,1.29-1A1.49,1.49,0,0,1,564.57,557.43Z"/><path class="cls-16" d="M563.52,558.28l1.12-.92A1.13,1.13,0,0,1,563.52,558.28Z"/><path class="cls-16" d="M562.49,559.11l1-.82A1,1,0,0,1,562.49,559.11Z"/><path class="cls-16" d="M559.6,561.32a1.44,1.44,0,0,1,1.16-1A1.23,1.23,0,0,1,559.6,561.32Z"/><path class="cls-16" d="M558.56,562.17l1.08-.89A1.08,1.08,0,0,1,558.56,562.17Z"/><path class="cls-26" d="M409.58,459.46l.79.7A.71.71,0,0,1,409.58,459.46Z"/><path class="cls-3" d="M349.57,460.36a1.41,1.41,0,0,1-1.28-1.07A1.56,1.56,0,0,1,349.57,460.36Z"/><path class="cls-6" d="M322.61,436.75l-1.07-1A1.15,1.15,0,0,1,322.61,436.75Z"/><path class="cls-6" d="M321.56,435.79l-1-.92A1.08,1.08,0,0,1,321.56,435.79Z"/><path class="cls-7" d="M422.29,673.89l1.13-1A1.21,1.21,0,0,1,422.29,673.89Z"/><path class="cls-6" d="M317.88,432.64a1.18,1.18,0,0,1-1.16-1A1.33,1.33,0,0,1,317.88,432.64Z"/><path class="cls-6" d="M316.83,431.71a1.31,1.31,0,0,1-1.16-1A1.29,1.29,0,0,1,316.83,431.71Z"/><path class="cls-15" d="M615.87,428.89l1.24-.9A1.28,1.28,0,0,1,615.87,428.89Z"/><path class="cls-34" d="M756.15,423.78l1.15-.75A1.06,1.06,0,0,1,756.15,423.78Z"/><path class="cls-34" d="M758.15,422.63,759,422C758.9,422.41,758.66,422.7,758.15,422.63Z"/><path class="cls-7" d="M423.33,673a1.49,1.49,0,0,1,1.28-1A1.53,1.53,0,0,1,423.33,673Z"/><path class="cls-7" d="M425.3,671.46a1.46,1.46,0,0,1,.68-.62A.59.59,0,0,1,425.3,671.46Z"/><path class="cls-34" d="M763.1,419.61,764,419C763.82,419.42,763.57,419.68,763.1,419.61Z"/><path class="cls-18" d="M666.26,394.34a1.58,1.58,0,0,1,1.3-.89A1.34,1.34,0,0,1,666.26,394.34Z"/><path class="cls-38" d="M385.75,704.52a1.49,1.49,0,0,1,1.13-1A1.21,1.21,0,0,1,385.75,704.52Z"/><path class="cls-5" d="M339.4,667.11a1.37,1.37,0,0,1,1.05-1.09A1.27,1.27,0,0,1,339.4,667.11Z"/><path class="cls-5" d="M340.37,666.1a1.41,1.41,0,0,1,1.07-1.07A1.27,1.27,0,0,1,340.37,666.1Z"/><path class="cls-38" d="M384.72,705.39l1.07-.9A1.1,1.1,0,0,1,384.72,705.39Z"/><path class="cls-5" d="M341.36,665.11a1.44,1.44,0,0,1,1-1.09A1.23,1.23,0,0,1,341.36,665.11Z"/><path class="cls-5" d="M342.33,664.1a1.5,1.5,0,0,1,1-1.08A1.24,1.24,0,0,1,342.33,664.1Z"/><path class="cls-5" d="M343.3,663.07l1-1A1.2,1.2,0,0,1,343.3,663.07Z"/><path class="cls-34" d="M765.27,392.17a1.4,1.4,0,0,1-1.25-.78A1.14,1.14,0,0,1,765.27,392.17Z"/><path class="cls-9" d="M558.54,471.21l1-.83A1,1,0,0,1,558.54,471.21Z"/><path class="cls-38" d="M383.7,706.26l1-.83A.93.93,0,0,1,383.7,706.26Z"/><path class="cls-35" d="M718.62,447.48l1-.77A.89.89,0,0,1,718.62,447.48Z"/><path class="cls-38" d="M380.86,708.57a1.32,1.32,0,0,1,1.19-1A1.3,1.3,0,0,1,380.86,708.57Z"/><path class="cls-38" d="M379.83,709.45l1.12-1A1.2,1.2,0,0,1,379.83,709.45Z"/><path class="cls-18" d="M679.49,341.85a1.71,1.71,0,0,1-1.41-.83A1.39,1.39,0,0,1,679.49,341.85Z"/><path class="cls-3" d="M298.94,710.62a1.35,1.35,0,0,1,1.05-1.15A1.33,1.33,0,0,1,298.94,710.62Z"/><path class="cls-38" d="M378.8,710.35c.35-.31.7-.62,1.06-.92A1.11,1.11,0,0,1,378.8,710.35Z"/><path class="cls-35" d="M719.61,446.74a1.65,1.65,0,0,1,1.43-.92A1.59,1.59,0,0,1,719.61,446.74Z"/><path class="cls-3" d="M297.06,712.68a1.11,1.11,0,0,1,1.05-1.13A1.35,1.35,0,0,1,297.06,712.68Z"/><path class="cls-8" d="M773.89,328.08a1.72,1.72,0,0,1,1.4-.8A1.39,1.39,0,0,1,773.89,328.08Z"/><path class="cls-38" d="M390.65,700.45l1.05-.91A1.1,1.1,0,0,1,390.65,700.45Z"/><path class="cls-8" d="M775.9,327l1.11-.74A1,1,0,0,1,775.9,327Z"/><path class="cls-7" d="M421.27,674.78l1.05-.91A1.09,1.09,0,0,1,421.27,674.78Z"/><path class="cls-3" d="M292,714.32l.91,1A1.06,1.06,0,0,1,292,714.32Z"/><path class="cls-8" d="M780.81,324.15a1.76,1.76,0,0,1,1.47-.81A1.48,1.48,0,0,1,780.81,324.15Z"/><path class="cls-8" d="M782.81,323.08l1.22-.77A1.11,1.11,0,0,1,782.81,323.08Z"/><path class="cls-5" d="M344.29,662.08l1-1A1.16,1.16,0,0,1,344.29,662.08Z"/><path class="cls-38" d="M386.79,703.64a1.34,1.34,0,0,1,1.16-1A1.28,1.28,0,0,1,386.79,703.64Z"/><path class="cls-30" d="M389.45,442.85a1.41,1.41,0,0,1,1.17,1A1.31,1.31,0,0,1,389.45,442.85Z"/><path class="cls-6" d="M323.7,437.71a1.48,1.48,0,0,1-1.14-1A1.32,1.32,0,0,1,323.7,437.71Z"/><path class="cls-16" d="M579.31,455.52l1.17-.89A1.2,1.2,0,0,1,579.31,455.52Z"/><path class="cls-5" d="M345.27,661.09l1-1.05A1.17,1.17,0,0,1,345.27,661.09Z"/><path class="cls-5" d="M346.24,660.06l1-1A1.15,1.15,0,0,1,346.24,660.06Z"/><path class="cls-3" d="M348.41,459.39a1.34,1.34,0,0,1-1.15-1A1.29,1.29,0,0,1,348.41,459.39Z"/><path class="cls-3" d="M298,711.66a1.2,1.2,0,0,1,1-1.15A1.32,1.32,0,0,1,298,711.66Z"/><text class="cls-43" transform="translate(0 956.36)">ME<tspan class="cls-44" x="292.8" y="0">T</tspan><tspan class="cls-45" x="397.79" y="0">A</tspan><tspan class="cls-46" x="531.58" y="0">-</tspan><tspan class="cls-47" x="594.61" y="0">T</tspan><tspan class="cls-48" x="699.59" y="0">A</tspan><tspan x="831.05" y="0">’LIM</tspan></text><text class="cls-49" transform="translate(113.18 1115.6)"><tspan class="cls-50">o</tspan><tspan class="cls-51" x="88.81" y="0">’</tspan><tspan x="114.99" y="0">quv ma</tspan><tspan class="cls-52" x="656.66" y="0">r</tspan><tspan class="cls-53" x="712.59" y="0">k</tspan><tspan class="cls-54" x="796.7" y="0">azi</tspan></text></g></g></svg>